<svg width="13" height="15" viewBox="0 0 13 15" fill="none" xmlns="http://www.w3.org/2000/svg">
<path d="M2.68723 2.29344V4.99921C5.83359 4.86195 6.82844 6.41662 6.82844 6.41662C6.50579 2.55976 2.68723 2.29344 2.68723 2.29344Z" fill="#A80A35"/>
<path d="M6.82846 6.41662C6.82846 6.41662 7.82331 4.86195 10.9697 4.99921V2.29344C10.9697 2.29344 7.15113 2.55976 6.82846 6.41662Z" fill="#A80A35"/>
<path d="M6.83147 6.4137C6.83147 6.4137 8.3907 7.40564 8.25303 10.5428H10.9668C10.9668 10.5428 10.6996 6.73542 6.83147 6.4137Z" fill="#A80A35"/>
<path d="M0.00993314 14.4385H2.82493C2.25465 7.60696 6.82551 6.4137 6.82551 6.4137C-0.554467 6.72465 0.00993314 14.4385 0.00993314 14.4385Z" fill="#A80A35"/>
<path d="M10.7573 0.561462H2.89971C1.8263 0.561462 0.956116 1.4291 0.956116 2.49936V8.13546C1.25151 7.76387 1.5841 7.40839 1.95903 7.07739V2.60119C1.95903 2.02694 2.42594 1.56143 3.00189 1.56143H10.6552C11.2311 1.56143 11.698 2.02694 11.698 2.60119V10.2321C11.698 10.8063 11.2311 11.2719 10.6552 11.2719H3.80818V12.2718H10.7573C11.8307 12.2718 12.7009 11.4041 12.7009 10.3339V2.49936C12.7009 1.4291 11.8307 0.561462 10.7573 0.561462Z" fill="#F68C1F"/>
</svg>
