<svg width="14" height="15" viewBox="0 0 14 15" fill="none" xmlns="http://www.w3.org/2000/svg">
<path fill-rule="evenodd" clip-rule="evenodd" d="M0 5.16669L2.91393 7.11113L6.41393 4.7778L4.95696 3.80284L6.85211 2.54307L10.9327 5.26528L4.22848 9.73475L5.68545 10.7097L14 5.16669L7 0.5L0 5.16669ZM14 9.83334L11.0806 7.88891L7.58059 10.2222L9.03756 11.1917L7.14241 12.457L3.06182 9.73475L9.76604 5.26528L8.30908 4.29032L0 9.83334L7 14.5L14 9.83334ZM14 2.44444L12.5376 3.41943L11.0806 2.44444L14 0.5V2.44444ZM0 12.5556L1.45696 11.5806L2.91393 12.5556L0 14.5V12.5556Z" fill="#FCFB2F"/>
</svg>
