<svg width="20" height="11" viewBox="0 0 20 11" fill="none" xmlns="http://www.w3.org/2000/svg">
<path d="M6.75215 7.25566C7.10157 6.96009 7.32928 6.57164 7.43662 6.09073H10.8859C10.7278 7.4653 10.1552 8.57815 9.16844 9.43014C8.18127 10.2821 6.96593 10.7084 5.52334 10.7084C4.47104 10.7084 3.52384 10.4848 2.68128 10.0382C1.83872 9.5916 1.1812 8.97094 0.70872 8.17624C0.23624 7.38153 0 6.4896 0 5.50002C0 4.51044 0.23624 3.61851 0.70872 2.82381C1.1812 2.0291 1.83872 1.40844 2.68128 0.961826C3.52384 0.514777 4.47104 0.291687 5.52334 0.291687C6.94303 0.291687 8.14174 0.702711 9.11949 1.52519C10.0968 2.34724 10.6744 3.42493 10.8509 4.75783H7.45099C7.30682 4.31816 7.06025 3.96443 6.71083 3.6962C6.36186 3.42841 5.97067 3.29429 5.53772 3.29429C4.94173 3.29429 4.46116 3.49698 4.09602 3.90236C3.72999 4.30775 3.54764 4.8403 3.54764 5.49959C3.54764 6.15497 3.73178 6.68535 4.09917 7.09073C4.46745 7.49611 4.94622 7.69837 5.53772 7.69837C5.99852 7.69837 6.40318 7.5508 6.75215 7.25566ZM18.9953 4.54733C19.665 5.16799 20 5.97094 20 6.95488C20 8.07988 19.6147 8.987 18.8435 9.67537C18.0719 10.3642 17.056 10.7084 15.7939 10.7084C14.5472 10.7084 13.5335 10.3629 12.7525 9.6719C11.971 8.98049 11.5807 8.08509 11.5807 6.98396C11.5807 6.38283 11.688 5.7778 11.9023 5.16929C12.1165 4.56078 12.448 3.89499 12.8966 3.17276L14.482 0.62502L17.8325 0.624586L15.9565 3.63066C16.1438 3.62111 16.2916 3.61634 16.4003 3.61634C17.4597 3.61634 18.3248 3.92667 18.9953 4.54733ZM16.7331 7.87849C16.9742 7.64108 17.0951 7.33335 17.0951 6.95488C17.0951 6.57684 16.9742 6.26651 16.7331 6.02389C16.4914 5.78127 16.1784 5.66018 15.7944 5.66018C15.4099 5.66018 15.0964 5.7817 14.8557 6.02389C14.6136 6.26651 14.4933 6.57684 14.4933 6.95488C14.4933 7.33335 14.6136 7.64108 14.8553 7.87849C15.0964 8.11634 15.4099 8.23526 15.7939 8.23526C16.1784 8.23526 16.4919 8.11634 16.7331 7.87849Z" fill="white"/>
</svg>
