<svg width="40" height="11" viewBox="0 0 40 11" fill="none" xmlns="http://www.w3.org/2000/svg">
<path d="M0 10.0902H4.26383L4.28651 9.97203L0.0817197 9.09944L0.163431 8.63136L4.36822 9.5403L4.40455 9.37667L0.431359 7.64967L0.603902 7.17248L4.58621 8.84944L4.66793 8.7313L1.13978 6.10897L1.50303 5.53635L5.00854 8.15859L5.11296 8.01772L2.35217 4.50919L3.02876 3.95927L5.76683 7.30422L5.8849 7.1997L4.29107 3.14126L5.25826 2.73224L6.7613 6.70885L6.87936 6.67249V2.26415H8.4232V10.4264H2.39999e-05L0 10.0902ZM24.5383 8.64496H26.2048V10.4402H24.8198C23.3622 10.4402 22.4677 9.93571 22.4677 8.086V4.07752H21.4778C21.3052 4.07752 21.2144 3.86845 21.3325 3.7412L24.1977 0.487208C24.3203 0.355415 24.5428 0.441762 24.5428 0.623549V2.28233H26.1956V4.07747H24.5428V8.64491L24.5383 8.64496ZM18.599 2.15059C17.6045 2.15059 16.8599 2.72322 16.4966 3.62305H16.4285V2.27782H14.4532V10.44H16.5284V4.11379H17.9133C18.5172 4.11379 18.7397 4.24104 18.7397 4.88637V10.44H20.8149V4.48187C20.8105 2.84126 20.0248 2.15043 18.599 2.15043L18.599 2.15059ZM10.866 10.4401H12.9411V2.2779H10.866V10.4401ZM38.0155 3.72298H37.9294V2.27774H35.8677V10.4399H38.0655V4.22733H40V2.15043H39.7319C38.7147 2.15043 38.2652 2.60035 38.0155 3.72289L38.0155 3.72298ZM34.9052 6.14986V6.76791H28.6843C28.7977 7.98135 29.556 8.7858 30.7275 8.7858C31.7765 8.7858 32.5348 8.2268 32.6891 7.53601H34.9005C34.4375 9.25845 32.8573 10.5765 30.6957 10.5765C28.1756 10.5765 26.4638 8.78132 26.4638 6.42714C26.4638 4.07296 28.1167 2.15059 30.7503 2.15059C33.2386 2.15059 34.9053 3.86398 34.9053 6.14994L34.9052 6.14986ZM28.7477 5.26366H32.7619C32.4485 4.44559 31.7857 3.85933 30.7593 3.85933C29.8603 3.86387 29.0702 4.33652 28.7477 5.26366Z" fill="#EA7100"/>
</svg>
