<svg width="15" height="15" viewBox="0 0 15 15" fill="none" xmlns="http://www.w3.org/2000/svg">
<path fill-rule="evenodd" clip-rule="evenodd" d="M5.19224 0.0707408C5.77297 0.0349318 6.08974 0.0197506 6.52155 0.00948365C7.23984 -0.00848344 8.39745 -3.20339e-05 9.02441 0.0273255C9.34875 0.0415364 9.93508 0.0754047 10.1463 0.0933718C10.1773 0.0956842 10.2182 0.0989794 10.2592 0.102276C10.3003 0.105584 10.3414 0.108893 10.3725 0.111214C10.3806 0.111959 10.3892 0.11275 10.3982 0.113574C10.4582 0.119092 10.5348 0.126126 10.5799 0.131028C10.6091 0.133705 10.6555 0.138446 10.7044 0.143429C10.7424 0.1473 10.7817 0.151317 10.8156 0.154629C11.0936 0.182018 11.2303 0.196072 11.2586 0.201832C11.2747 0.205494 11.3509 0.215886 11.4283 0.225308C11.8138 0.274326 12.4059 0.370547 12.5878 0.414807C12.6302 0.42416 12.6726 0.433289 12.7151 0.442196C12.865 0.473279 12.9348 0.488429 12.9697 0.498695C13.0199 0.511572 13.0702 0.524166 13.1205 0.536476C13.4127 0.608126 13.639 0.709981 13.8426 0.859884C13.9454 0.935321 14.1169 1.11446 14.1838 1.21534C14.2148 1.26265 14.2439 1.30553 14.2493 1.31353L14.2498 1.31426C14.2762 1.35107 14.3809 1.58398 14.4016 1.65369C14.4082 1.67448 14.4167 1.69989 14.4214 1.71028C14.4317 1.73195 14.4629 1.85358 14.4893 1.97428C14.4997 2.02048 14.5166 2.0968 14.5269 2.144C14.6006 2.47864 14.6863 2.96992 14.7325 3.32244C14.7428 3.39985 14.7532 3.47528 14.7561 3.48849C14.7627 3.5177 14.7929 3.76651 14.8173 3.99189C14.8277 4.08516 14.8381 4.17199 14.8409 4.1852C14.8437 4.19838 14.8522 4.28327 14.8597 4.37373C14.8673 4.46423 14.8757 4.55566 14.8786 4.57647C14.8814 4.59713 14.8918 4.72638 14.9021 4.86404C14.9056 4.90933 14.9092 4.9578 14.9127 5.00486C14.9199 5.10077 14.9266 5.19085 14.9304 5.23637C14.9352 5.30336 14.9436 5.45044 14.9493 5.56172C14.955 5.673 14.9634 5.83035 14.9682 5.91058C15.0106 6.61765 15.0106 8.41652 14.9682 9.10199C14.9643 9.15522 14.9586 9.26264 14.9527 9.37521C14.95 9.42601 14.9472 9.47786 14.9446 9.52625C14.937 9.68179 14.9267 9.8449 14.921 9.88919C14.9163 9.93355 14.9078 10.0391 14.9021 10.1249C14.8965 10.2108 14.888 10.3182 14.8824 10.3653C14.8777 10.4115 14.8673 10.5266 14.8597 10.6199C14.8522 10.7133 14.8419 10.815 14.8361 10.8462C14.8305 10.8773 14.8201 10.9641 14.8127 11.0395C14.7975 11.1922 14.7637 11.4816 14.7561 11.525C14.7532 11.5401 14.7428 11.6127 14.7325 11.6853C14.6854 12.0152 14.6336 12.3386 14.625 12.3594C14.6222 12.367 14.6137 12.4113 14.6062 12.4583C14.576 12.6423 14.4931 13.0316 14.4487 13.1966C14.4205 13.3031 14.3544 13.4908 14.3366 13.5144C14.3337 13.5179 14.3278 13.5319 14.321 13.5478C14.3187 13.5532 14.3164 13.5588 14.314 13.5643C14.3054 13.5869 14.2838 13.6285 14.2658 13.6567C14.248 13.685 14.2328 13.7114 14.2328 13.7152C14.2328 13.719 14.2168 13.7426 14.197 13.769C14.1782 13.7944 14.1555 13.8264 14.1471 13.8396C14.1217 13.8783 14.017 13.9914 13.9416 14.0602C13.8746 14.1206 13.8407 14.147 13.7671 14.1931C13.7511 14.2027 13.7323 14.2167 13.7257 14.2233C13.704 14.2441 13.4475 14.3658 13.3703 14.3912C13.3388 14.4019 13.3073 14.4129 13.276 14.4242C13.2506 14.4355 13.1091 14.4713 12.9461 14.5081C12.8734 14.5251 12.799 14.5429 12.7811 14.5477C12.7377 14.559 12.4644 14.6136 12.2579 14.6514C12.0693 14.6862 11.7394 14.7363 11.499 14.7673C11.434 14.7759 11.3349 14.7891 11.2775 14.7975C11.0767 14.8258 10.4836 14.8834 10.0802 14.9144C9.76539 14.938 9.69181 14.9428 9.49106 14.9522C9.47635 14.9529 9.4609 14.9536 9.44497 14.9544C9.33437 14.9597 9.20062 14.9661 9.12807 14.971C8.46631 15.0097 6.54697 15.0097 5.87578 14.971C5.79278 14.9663 5.62969 14.9578 5.51279 14.9522C5.39593 14.9465 5.24785 14.938 5.18282 14.9332C4.74919 14.9022 4.6587 14.8946 4.57007 14.8852C4.53882 14.882 4.48259 14.8766 4.42025 14.8706C4.37357 14.8662 4.32347 14.8614 4.27787 14.8569C3.98189 14.8287 3.51048 14.7739 3.39643 14.7541C3.36535 14.7485 3.29556 14.7381 3.24088 14.7306C3.09578 14.7098 2.86471 14.673 2.746 14.6514C2.53949 14.6136 2.26614 14.559 2.22276 14.5477C2.20489 14.5429 2.13043 14.5251 2.05782 14.5081C1.89091 14.4703 1.75242 14.4355 1.72785 14.4242C1.71746 14.4194 1.69201 14.411 1.67123 14.4044C1.56009 14.3714 1.30079 14.2479 1.26398 14.2121C1.25653 14.2045 1.24711 14.1979 1.24332 14.1979C1.23857 14.1979 1.22073 14.1865 1.20176 14.1715C1.18619 14.1591 1.16333 14.1424 1.14843 14.1316C1.14627 14.13 1.14427 14.1285 1.14248 14.1272C1.05763 14.0668 0.90393 13.9103 0.85016 13.8302C0.844943 13.8226 0.837661 13.812 0.829784 13.8006C0.819184 13.7852 0.807506 13.7683 0.798331 13.7548C0.781336 13.7312 0.743654 13.6652 0.714453 13.6087C0.607946 13.404 0.568323 13.2796 0.477872 12.8638C0.451457 12.745 0.414682 12.5574 0.398657 12.4631C0.392886 12.4332 0.385429 12.3917 0.378863 12.3551C0.375709 12.3375 0.37276 12.321 0.370302 12.3076C0.335436 12.1227 0.303418 11.9209 0.276032 11.7136C0.269791 11.6654 0.259508 11.5954 0.251882 11.5434C0.250406 11.5334 0.24903 11.524 0.247802 11.5156C0.232747 11.4184 0.214783 11.2723 0.191184 11.0489C0.183735 10.9791 0.173344 10.8876 0.167711 10.8452C0.162953 10.8028 0.151686 10.6925 0.144112 10.6C0.136538 10.5077 0.125302 10.3974 0.120513 10.3559C0.112094 10.288 0.0950995 10.074 0.0734414 9.7478C0.0686841 9.68276 0.06111 9.53664 0.0554764 9.42258C0.0498428 9.30852 0.0404534 9.15567 0.0356649 9.08314C0.0224572 8.90404 0.00840442 8.39013 0.00180058 7.81506C-0.00480327 7.35398 0.00743421 6.50822 0.0262755 6.11329C0.0506878 5.58056 0.0997316 4.82529 0.119543 4.65191C0.125302 4.60471 0.136538 4.49061 0.144112 4.39733C0.152562 4.30393 0.161107 4.21244 0.163924 4.19459C0.165009 4.18403 0.169049 4.14805 0.174307 4.10124C0.17799 4.06844 0.182271 4.03031 0.186552 3.99189C0.207208 3.80151 0.230807 3.61383 0.266612 3.35546C0.303418 3.08865 0.360881 2.72101 0.375059 2.66717C0.379816 2.64933 0.387296 2.60213 0.393024 2.5635C0.399659 2.52484 0.409893 2.46543 0.417499 2.43157C0.425073 2.39757 0.438281 2.33632 0.445729 2.29487C0.495743 2.04775 0.565538 1.74612 0.581562 1.71028C0.585496 1.70146 0.597035 1.66954 0.609626 1.63472C0.611862 1.62853 0.614131 1.62226 0.616397 1.616C0.708819 1.34825 0.892569 1.07862 1.0981 0.911719C1.30924 0.739217 1.58356 0.606185 1.85989 0.540264C1.86357 0.53963 1.88375 0.534969 1.91098 0.528679C1.9254 0.525346 1.94181 0.521556 1.95879 0.517664C2.00781 0.506271 2.08226 0.488429 2.12383 0.478036C2.27371 0.442196 2.53852 0.38842 2.69417 0.362002C2.72646 0.356565 2.77236 0.34806 2.81092 0.340917C2.82519 0.338273 2.83846 0.335814 2.84966 0.333768C2.89113 0.326161 2.95529 0.314924 2.99112 0.310166C3.0278 0.304532 3.09284 0.29414 3.13722 0.286565C3.34739 0.250725 3.84706 0.187652 4.1836 0.154629C4.26372 0.147054 4.37214 0.136662 4.42397 0.131028C4.63044 0.110369 4.92364 0.0867672 5.19224 0.0707408ZM2.42826 6.39988C2.401 6.39331 2.37361 6.38473 2.36798 6.3801C2.35574 6.37155 2.16051 6.3631 2.10489 6.36874C2.0842 6.37155 2.05879 6.37631 2.0484 6.38094C2.03801 6.3857 2.00878 6.39512 1.98239 6.40176C1.92674 6.41591 1.83529 6.46017 1.81745 6.48001C1.81085 6.48843 1.80227 6.49504 1.79852 6.49504C1.78249 6.49504 1.67038 6.61571 1.65242 6.65067C1.64203 6.67133 1.63076 6.6903 1.62794 6.69312C1.62513 6.6959 1.61755 6.7129 1.61095 6.73074C1.60434 6.74874 1.59214 6.77882 1.58356 6.79679C1.55349 6.86465 1.55912 7.15691 1.59117 7.22108C1.59457 7.22641 1.60418 7.24628 1.61595 7.27063C1.62063 7.28031 1.62565 7.29069 1.63076 7.30115C1.66375 7.36998 1.77686 7.49544 1.8315 7.52273C1.84753 7.53031 1.86171 7.53876 1.86452 7.54251C1.86734 7.54533 1.88434 7.55294 1.9023 7.55951C1.92333 7.56727 1.94408 7.57576 1.96452 7.58496C1.98055 7.59156 2.01723 7.60011 2.04643 7.60377C2.07663 7.60756 2.10023 7.61416 2.10023 7.61798C2.10023 7.62934 2.30479 7.62934 2.31136 7.61798C2.31418 7.61416 2.3406 7.60756 2.3708 7.60377C2.40845 7.60011 2.45562 7.58311 2.52165 7.55012C2.60272 7.51049 2.62716 7.49165 2.68659 7.43039C2.75066 7.3624 2.77523 7.32378 2.82609 7.2069C2.84208 7.17203 2.85444 7.07681 2.85444 6.99574C2.85444 6.9127 2.84023 6.80057 2.82803 6.78261C2.82324 6.77797 2.81482 6.75619 2.80822 6.73553C2.80064 6.71474 2.79222 6.69593 2.78928 6.69312C2.78647 6.6903 2.7762 6.6733 2.76665 6.65446C2.74697 6.61668 2.64697 6.50922 2.60453 6.48095C2.55089 6.44514 2.47925 6.41212 2.42826 6.39988ZM12.6397 7.51328V7.03718V6.56105L12.6189 6.56202C12.6067 6.56299 12.5652 6.56863 12.5266 6.5762C12.488 6.58284 12.4031 6.59686 12.338 6.60725C12.273 6.61768 12.205 6.63086 12.1872 6.63552C12.1692 6.64125 12.1165 6.6497 12.0693 6.65533C12.0231 6.66194 11.976 6.67048 11.9657 6.67512C11.9553 6.67894 11.911 6.68736 11.8666 6.69312C11.8224 6.69872 11.763 6.70914 11.7347 6.71571C11.7064 6.7232 11.6423 6.73456 11.5933 6.74019C11.5442 6.7468 11.5 6.75534 11.4943 6.759C11.4896 6.76279 11.4424 6.77137 11.3906 6.77797C11.3387 6.78455 11.2925 6.79203 11.2869 6.79581C11.2785 6.80145 11.138 6.82505 10.9127 6.85989L10.8108 6.87601V7.51328H12.6397ZM4.83403 8.02243V7.45765C4.83403 7.14661 4.83122 6.8901 4.82743 6.88825C4.81898 6.88346 4.64271 6.91088 4.54184 6.93166C4.49815 6.94076 4.4541 6.94798 4.40979 6.95329C4.37593 6.95611 4.34475 6.96272 4.33912 6.9665C4.33449 6.97029 4.27505 6.98056 4.2072 6.9901C4.14022 6.99852 4.08082 7.00895 4.07519 7.01274C4.07052 7.0164 4.02333 7.02594 3.9715 7.03252C3.91967 7.03915 3.87344 7.04757 3.86781 7.05136C3.86305 7.05515 3.83006 7.06175 3.7952 7.06545L3.73116 7.07202V8.02243H3.18429V8.86159H3.73019L3.73394 9.80627C3.73676 10.4341 3.74143 10.7661 3.74803 10.7943C3.75707 10.8335 3.76558 10.8728 3.77357 10.9122C3.78102 10.9537 3.79241 10.9961 3.79704 11.0065C3.8018 11.0169 3.81307 11.0527 3.82161 11.0866C3.83103 11.1206 3.84045 11.1498 3.84424 11.1526C3.84706 11.1554 3.85547 11.1724 3.86305 11.1903C3.88471 11.245 3.9489 11.3515 3.99228 11.4072C4.04877 11.4788 4.12041 11.5571 4.12983 11.5581C4.13459 11.5581 4.15722 11.5749 4.18166 11.5947C4.22323 11.6297 4.2467 11.6447 4.32494 11.6862C4.34291 11.6966 4.3599 11.707 4.36272 11.7098C4.36554 11.7126 4.38438 11.7212 4.40516 11.7277C4.42594 11.7344 4.44757 11.7428 4.45223 11.7476C4.45796 11.7512 4.4834 11.7598 4.50882 11.7664C4.53523 11.772 4.56065 11.7815 4.56628 11.7852C4.57764 11.7937 4.73034 11.822 4.76715 11.822C4.78133 11.822 4.79635 11.8258 4.80198 11.8305C4.82461 11.8541 5.2112 11.8513 5.42331 11.8267C5.57223 11.8088 5.68067 11.7918 5.70415 11.7815L5.72968 11.7702V10.9433L5.66646 10.9499C5.63066 10.9537 5.59667 10.9612 5.58922 10.9669C5.57223 10.9819 5.19039 10.9819 5.17255 10.9678C5.16498 10.9621 5.14701 10.9546 5.13099 10.9508C5.03672 10.9282 4.92743 10.8368 4.8888 10.7471C4.88086 10.7291 4.8742 10.715 4.86861 10.7004C4.83829 10.6217 4.83931 10.5308 4.83685 9.73559L4.83316 8.86159H5.77673V8.02243H4.83403ZM8.25135 7.96584C8.24012 7.95738 8.09108 7.94039 7.95916 7.93281V7.93284L7.8083 7.92439C7.69704 7.91779 7.20313 7.94893 7.14835 7.96584C7.13333 7.97059 7.07587 7.98099 7.0211 7.98844C6.96645 7.99604 6.91362 8.00446 6.90335 8.0074C6.87365 8.01475 6.84378 8.02136 6.81375 8.02722C6.7751 8.03564 6.73647 8.04606 6.72793 8.04982C6.72048 8.05448 6.68843 8.06306 6.65726 8.06963C6.62706 8.07611 6.59786 8.08369 6.59222 8.08848C6.58743 8.09223 6.55542 8.10253 6.52155 8.11195C6.48756 8.12053 6.45652 8.13177 6.45076 8.13555C6.44612 8.13934 6.42068 8.14789 6.39426 8.15352C6.36885 8.16012 6.34243 8.16952 6.33583 8.17515C6.32641 8.18272 6.3235 8.28167 6.3235 8.62207C6.3235 8.86244 6.32544 9.05954 6.32826 9.05954C6.33107 9.05954 6.34904 9.05197 6.36885 9.04158C6.38766 9.03215 6.42447 9.01898 6.45076 9.01334C6.4763 9.00671 6.50174 8.99829 6.50737 8.9945C6.51213 8.99071 6.53855 8.98129 6.56396 8.97468C6.59038 8.96808 6.61579 8.95869 6.62142 8.95487C6.62706 8.95011 6.66105 8.94072 6.69685 8.93227C6.73269 8.92382 6.77034 8.91343 6.78073 8.90867C6.79112 8.90401 6.82511 8.89546 6.85616 8.88983C6.88733 8.88422 6.92119 8.87565 6.93159 8.87101C6.94198 8.86622 6.98623 8.85583 7.03061 8.84838C7.0749 8.84078 7.12954 8.83042 7.15314 8.82575C7.33602 8.78519 7.94498 8.79179 7.94498 8.83323C7.94498 8.83702 7.961 8.84363 7.98081 8.84741C8.02141 8.85499 8.08826 8.88507 8.12973 8.91527C8.14585 8.92751 8.16187 8.9369 8.16553 8.9369C8.17593 8.9369 8.26738 9.03131 8.28913 9.06421C8.32299 9.11617 8.35883 9.19245 8.36543 9.22732C8.36922 9.24626 8.37485 9.2641 8.37961 9.26692C8.3834 9.26973 8.39 9.30936 8.3937 9.35556C8.40027 9.43576 8.39942 9.43945 8.38243 9.432C8.33241 9.41122 7.8621 9.40743 7.72821 9.42721C7.69425 9.432 7.61416 9.44139 7.54912 9.44702C7.48396 9.45266 7.42747 9.46121 7.42183 9.46502C7.41708 9.46869 7.38027 9.47626 7.34165 9.48287C7.30303 9.48847 7.24738 9.49986 7.21915 9.50831C7.14175 9.53004 6.96557 9.58657 6.94761 9.59596C6.82132 9.65637 6.7345 9.70063 6.69588 9.7242C6.64221 9.75528 6.48378 9.87977 6.48378 9.88916C6.48378 9.89295 6.47533 9.89871 6.46493 9.90152C6.45454 9.90434 6.44328 9.91373 6.43952 9.92412C6.4367 9.93358 6.43007 9.94297 6.42631 9.94578C6.40835 9.95802 6.30466 10.0929 6.30466 10.1033C6.30466 10.1099 6.30184 10.1155 6.29805 10.1155C6.29342 10.1155 6.28585 10.1249 6.28021 10.1371C6.27449 10.1485 6.26322 10.1702 6.25477 10.1861C6.22838 10.2343 6.20281 10.2984 6.19058 10.3474C6.18494 10.3729 6.17652 10.3974 6.17274 10.4031C6.16895 10.4077 6.16041 10.4483 6.15477 10.4926C6.12554 10.7199 6.12275 10.7575 6.13412 10.7689C6.13975 10.7745 6.14438 10.8019 6.14438 10.8292C6.14438 10.8876 6.16235 11.0215 6.17274 11.0347C6.17656 11.0395 6.18497 11.0677 6.19158 11.096C6.19818 11.1243 6.20857 11.1582 6.21602 11.1714C6.22263 11.1846 6.23777 11.2158 6.24901 11.2421C6.2604 11.2676 6.28203 11.3073 6.29721 11.3289C6.31126 11.3506 6.3235 11.3714 6.3235 11.3751C6.3235 11.3855 6.33768 11.4006 6.44797 11.5108C6.55542 11.6183 6.56862 11.6306 6.60822 11.6523C6.6341 11.6663 6.65959 11.6811 6.68465 11.6966C6.72085 11.7165 6.75797 11.7347 6.79588 11.7512C6.82877 11.7644 6.8694 11.7815 6.88442 11.788C6.90041 11.7956 6.94285 11.806 6.97866 11.8126C7.01546 11.8192 7.04945 11.8277 7.05408 11.8315C7.10031 11.8673 7.69425 11.8681 7.74229 11.8323C7.74705 11.8286 7.77528 11.8201 7.80354 11.8135C7.8319 11.8078 7.86673 11.7965 7.88091 11.7899C7.89412 11.7824 7.92138 11.7711 7.94216 11.7654C7.97615 11.754 8.00905 11.7344 8.13264 11.6532C8.18913 11.6155 8.33157 11.4798 8.37485 11.4222L8.40221 11.3846L8.40784 11.4694C8.41163 11.5156 8.41445 11.6033 8.41545 11.6636L8.41639 11.7748H9.44483L9.44105 10.5134C9.43726 9.47441 9.43447 9.23965 9.42321 9.17743C9.4156 9.13586 9.40718 9.09538 9.4034 9.08781C9.40058 9.08036 9.39301 9.04818 9.38737 9.01713C9.38077 8.98595 9.37219 8.95587 9.36844 8.95108C9.36477 8.94548 9.35814 8.92664 9.35438 8.90867C9.35056 8.89083 9.3392 8.8578 9.32978 8.83605C9.31952 8.81439 9.31194 8.7936 9.31194 8.78994C9.31194 8.77955 9.22806 8.61644 9.20828 8.58808C9.19789 8.57403 9.18932 8.55884 9.18932 8.55603C9.18932 8.54479 9.02159 8.34108 9.00739 8.33447C9.00275 8.33266 8.96876 8.30439 8.93196 8.2714C8.89531 8.23922 8.85371 8.20633 8.84054 8.19972C8.82733 8.19399 8.81046 8.18276 8.80285 8.17712C8.78026 8.15815 8.63319 8.08469 8.56715 8.05824C8.48806 8.02622 8.35698 7.98759 8.30321 7.97904C8.27961 7.97623 8.25699 7.96959 8.25135 7.96584ZM2.76005 11.7748V9.89871V8.02243H1.65718V11.7748H2.76005ZM11.121 10.5539C11.0984 10.5238 11.0936 10.3078 11.0936 9.19148L11.0936 8.02243H9.98976L9.99258 9.35838C9.99443 10.3634 9.99821 10.7001 10.0068 10.7141C10.0124 10.7245 10.0228 10.7707 10.0284 10.816C10.034 10.8622 10.0426 10.9065 10.0472 10.915C10.052 10.9244 10.0604 10.9518 10.0661 10.9781C10.0718 11.0037 10.0831 11.0376 10.0897 11.0536C10.0963 11.0687 10.1076 11.0979 10.1133 11.1177C10.1283 11.1676 10.2009 11.3035 10.2481 11.3713C10.3254 11.4826 10.5092 11.6551 10.5903 11.6919C10.6025 11.6975 10.6129 11.7051 10.6129 11.7088C10.6129 11.7126 10.6299 11.7212 10.6506 11.7277C10.6714 11.7344 10.6884 11.7428 10.6884 11.7466C10.6884 11.7504 10.7062 11.7588 10.7288 11.7644C10.7506 11.771 10.7732 11.7805 10.7778 11.7842C10.7835 11.788 10.8146 11.7994 10.8485 11.8078C10.8825 11.8163 10.9183 11.8277 10.9287 11.8323C10.9674 11.8484 11.0994 11.8597 11.2615 11.8597C11.4264 11.8597 11.5933 11.8455 11.6027 11.8315C11.6055 11.8276 11.6329 11.8192 11.6639 11.8126C11.6952 11.806 11.731 11.7956 11.7442 11.789C11.7475 11.7873 11.7527 11.7847 11.7592 11.7814C11.7786 11.7716 11.8095 11.7559 11.8384 11.7418C11.9233 11.7004 11.9619 11.6796 11.9807 11.6646C12.1108 11.5571 12.1938 11.476 12.2467 11.4043C12.2579 11.3902 12.2693 11.3789 12.273 11.3789C12.2767 11.3789 12.2815 11.4628 12.2833 11.5646C12.2853 11.6674 12.2899 11.757 12.2937 11.7626C12.2993 11.772 12.4163 11.7749 12.8244 11.7749H13.3467V8.02243H12.2438V9.18021C12.2438 10.2862 12.24 10.4766 12.2164 10.5068C12.2116 10.5115 12.2051 10.5322 12.2022 10.553C12.1985 10.5728 12.1872 10.6048 12.1768 10.6236C12.1674 10.6425 12.159 10.6623 12.159 10.668C12.159 10.6737 12.1466 10.6943 12.1306 10.7151C12.1155 10.7349 12.1023 10.7557 12.1023 10.7603C12.1023 10.7755 12.0043 10.866 11.9515 10.8999C11.9232 10.9188 11.8808 10.9386 11.8572 10.9452C11.8336 10.9518 11.8044 10.9613 11.7922 10.9678C11.779 10.9735 11.7215 10.9781 11.6555 10.9781C11.5612 10.9781 11.5292 10.9744 11.4688 10.9555C11.4283 10.9423 11.3953 10.9291 11.3953 10.9254C11.3953 10.9216 11.3849 10.916 11.3707 10.9131C11.3575 10.9094 11.3161 10.8764 11.2793 10.8386C11.2096 10.7689 11.1484 10.6661 11.1352 10.5954C11.1314 10.5774 11.1256 10.5586 11.121 10.5539ZM7.7471 10.0247C7.75787 10.0202 7.80675 10.013 7.85447 10.0085C7.96197 9.99946 8.31339 9.99667 8.38471 10.0049L8.43749 10.0102L8.4336 10.2379C8.43159 10.3869 8.42673 10.47 8.41992 10.4781C8.41408 10.4854 8.40624 10.5044 8.40332 10.5207C8.38967 10.5857 8.28707 10.7429 8.23147 10.7817C8.22262 10.788 8.19831 10.8061 8.17678 10.8214C8.15525 10.8367 8.10941 10.8612 8.07421 10.8766C8.03913 10.891 8.00292 10.9063 7.99417 10.9109C7.9434 10.9362 7.70898 10.946 7.58605 10.9289C7.51764 10.919 7.49421 10.91 7.37111 10.8513C7.30187 10.8179 7.2237 10.7067 7.20422 10.6154C7.18662 10.5315 7.18269 10.4674 7.19346 10.4465C7.19926 10.4367 7.2061 10.4131 7.20814 10.3951C7.21586 10.3427 7.26283 10.2587 7.30971 10.2135C7.35847 10.1665 7.42972 10.1276 7.57626 10.0689C7.59577 10.0609 7.63782 10.05 7.66897 10.0446C7.70126 10.0382 7.73634 10.0302 7.7471 10.0247Z" fill="#FF6200"/>
</svg>
