<svg width="12" height="13" viewBox="0 0 12 13" fill="none" xmlns="http://www.w3.org/2000/svg">
<mask id="mask0_16_58" style="mask-type:luminance" maskUnits="userSpaceOnUse" x="0" y="0" width="12" height="13">
<path d="M9.98012 4.34388V12.5016H11.7523V6.09855C11.7523 5.12957 10.9666 4.34388 9.99762 4.34388H9.98012ZM2.03145 4.34388C1.07139 4.34388 0.292968 5.1223 0.292968 6.08236V12.5019H2.04927V4.34388H2.03145ZM5.21317 1.35963C4.39742 1.35963 3.73626 2.02114 3.73626 2.83658V2.85144V4.36237L3.74021 9.27728C3.74417 9.6257 3.76763 9.97941 3.82971 10.3219C3.99748 11.2417 4.43606 11.996 5.31223 12.4022C6.42323 12.9177 7.4292 12.851 8.5597 12.4821V10.8067C8.5597 10.8067 7.95565 11.062 7.06525 11.062C6.94174 11.062 6.81756 11.0587 6.69602 11.0362C6.10551 10.9273 5.72671 10.5461 5.60616 9.91501C5.57151 9.73337 5.55104 9.54513 5.55037 9.35986V5.869H8.56034V4.34388H5.55037V1.35963H5.21317ZM9.70535 1.32562C9.70041 1.95875 10.1951 2.44621 10.8477 2.4515C11.4931 2.45644 12.0003 1.96535 12 1.33588C12 0.712347 11.5102 0.232142 10.8682 0.226528C10.8642 0.226528 10.8606 0.226528 10.857 0.226528C10.2037 0.226196 9.70998 0.696501 9.70535 1.32562ZM1.14306 0.226196C0.487805 0.227848 -0.00427618 0.71037 2.80187e-05 1.34577C0.00433222 1.96831 0.495744 2.44455 1.14042 2.4515C1.78541 2.45775 2.294 1.96732 2.29499 1.33786C2.29633 0.707724 1.80094 0.227848 1.14998 0.226196H1.14306Z" fill="white"/>
</mask>
<g mask="url(#mask0_16_58)">
<path d="M5.66299 18.9106L-6.3403 6.21741L6.33311 -5.76703L18.3364 6.92582L5.66299 18.9106Z" fill="url(#paint0_linear_16_58)"/>
</g>
<defs>
<linearGradient id="paint0_linear_16_58" x1="12.0239" y1="12.9429" x2="-0.100865" y2="0.121331" gradientUnits="userSpaceOnUse">
<stop stop-color="#EB7224"/>
<stop offset="0.2287" stop-color="#EB7224"/>
<stop offset="0.3349" stop-color="#EC6D43"/>
<stop offset="0.4604" stop-color="#EC675F"/>
<stop offset="0.5836" stop-color="#ED6272"/>
<stop offset="0.7016" stop-color="#EE5E80"/>
<stop offset="0.8131" stop-color="#EF5A89"/>
<stop offset="0.9154" stop-color="#EF588F"/>
<stop offset="1" stop-color="#EF5791"/>
</linearGradient>
</defs>
</svg>
