<svg width="20" height="15" viewBox="0 0 20 15" fill="none" xmlns="http://www.w3.org/2000/svg">
<path d="M10 0.828537C4.57952 0.828537 0.182816 3.64529 0.182816 7.11137C0.182816 10.5774 4.57952 13.6686 10 13.6686C15.4205 13.6686 19.8172 10.5866 19.8172 7.11137C19.8172 3.63615 15.4205 0.828537 10 0.828537Z" fill="#00BCFF"/>
<path d="M6.80075 5.17252C6.79161 5.18166 6.7002 5.28226 6.76418 5.36457C6.91958 5.55662 7.38576 5.66636 7.86108 5.56576C8.14444 5.50175 8.50093 5.21824 8.85742 4.93474C9.24133 4.63294 9.6161 4.33115 9.99088 4.21226C10.3931 4.08422 10.649 4.13909 10.8227 4.19397C11.0055 4.24884 11.2249 4.37687 11.5814 4.63294C12.2395 5.12679 14.8812 7.44055 15.3474 7.8338C15.713 7.66919 17.468 6.95585 19.6892 6.47115C19.4973 5.28226 18.7843 4.15738 17.6874 3.27029C16.1609 3.91046 14.1773 4.29456 12.3492 3.40747C12.3401 3.40747 11.3528 2.94106 10.3839 2.95935C8.93969 2.99593 8.30897 3.61781 7.65084 4.28542L6.80075 5.17252Z" fill="white"/>
<path d="M15.2285 8.08075C15.2011 8.05331 12.1206 5.35544 11.4168 4.83416C11.0146 4.53236 10.7861 4.45006 10.5484 4.42262C10.4296 4.40433 10.2559 4.43176 10.1371 4.4592C9.80801 4.55065 9.38753 4.83416 9.01276 5.12681C8.61971 5.43775 8.25408 5.7304 7.91587 5.80356C7.47711 5.90416 6.94695 5.78527 6.70015 5.62066C6.5996 5.55664 6.53561 5.47433 6.49905 5.40117C6.40764 5.19083 6.57217 5.02621 6.5996 4.99877L7.44969 4.0751C7.55024 3.9745 7.65079 3.8739 7.75133 3.78245C7.47711 3.81903 7.22117 3.89219 6.97437 3.95621C6.66358 4.03852 6.37108 4.12082 6.06943 4.12082C5.94146 4.12082 5.27419 4.01108 5.14622 3.9745C4.37839 3.76416 3.50088 3.56296 2.49539 3.0874C1.28881 3.98364 0.502705 5.09023 0.265045 6.33399C0.43872 6.37972 0.895758 6.48031 1.01459 6.50775C3.74768 7.12049 4.59777 7.74237 4.75316 7.8704C4.9177 7.6875 5.1645 7.56861 5.42958 7.56861C5.73122 7.56861 6.00545 7.72408 6.16998 7.95271C6.32537 7.82468 6.54475 7.72408 6.81898 7.72408C6.94695 7.72408 7.07492 7.75151 7.21203 7.78809C7.52281 7.89784 7.67821 8.09904 7.76047 8.28194C7.86102 8.23622 7.98899 8.19963 8.14439 8.19963C8.29064 8.19963 8.44603 8.23622 8.60143 8.30023C9.10417 8.51972 9.18643 9.01357 9.14073 9.38853C9.17729 9.38853 9.21386 9.37938 9.25042 9.37938C9.84457 9.37938 10.3382 9.86408 10.3382 10.4677C10.3382 10.6506 10.2925 10.8243 10.2102 10.9798C10.3747 11.0713 10.7861 11.2816 11.1517 11.2359C11.4442 11.1993 11.5539 11.0987 11.5905 11.0438C11.6179 11.0072 11.6453 10.9615 11.6179 10.9249L10.8501 10.0653C10.8501 10.0653 10.7221 9.94639 10.7678 9.90066C10.8135 9.85494 10.8866 9.91895 10.9415 9.96468C11.3345 10.2939 11.8098 10.7878 11.8098 10.7878C11.819 10.7969 11.8464 10.8518 12.0292 10.8884C12.1846 10.9158 12.4497 10.8975 12.6416 10.742C12.6873 10.7055 12.7331 10.6506 12.7788 10.6049L12.7696 10.614C12.9707 10.3579 12.7513 10.1019 12.7513 10.1019L11.8464 9.08673C11.8464 9.08673 11.7184 8.96784 11.7641 8.92212C11.8007 8.87639 11.883 8.9404 11.9469 8.98613C12.2303 9.22391 12.6325 9.6263 13.0256 10.0104C13.0987 10.0653 13.4369 10.2756 13.8939 9.98297C14.1682 9.80006 14.223 9.58058 14.2139 9.41596C14.1956 9.19648 14.0219 9.041 14.0219 9.041L12.7879 7.80639C12.7879 7.80639 12.6599 7.69664 12.7056 7.64177C12.7422 7.59605 12.8245 7.66006 12.8793 7.70579C13.2724 8.03502 14.3327 9.00442 14.3327 9.00442C14.351 9.01357 14.7166 9.27878 15.1645 8.98613C15.329 8.88553 15.4296 8.73006 15.4387 8.54716C15.4479 8.26365 15.2285 8.08075 15.2285 8.08075Z" fill="white"/>
<path d="M9.25962 9.64462C9.06766 9.64462 8.85742 9.75437 8.83 9.73608C8.81172 9.72693 8.83914 9.65377 8.85742 9.60804C8.8757 9.56232 9.1225 8.8124 8.51921 8.54719C8.05303 8.34599 7.76053 8.57462 7.66912 8.67522C7.6417 8.70266 7.63256 8.70266 7.63256 8.66607C7.62342 8.52889 7.55943 8.16308 7.15724 8.03505C6.58137 7.86129 6.2066 8.26368 6.11519 8.41001C6.06949 8.08078 5.79526 7.82471 5.45706 7.82471C5.08228 7.82471 4.78978 8.1265 4.78064 8.49231C4.78064 8.86727 5.08228 9.15992 5.44792 9.15992C5.63073 9.15992 5.79526 9.08676 5.91409 8.97701C5.91409 8.97701 5.92324 8.98616 5.91409 8.99531C5.88667 9.15992 5.83183 9.76351 6.46254 10.0104C6.71848 10.111 6.92872 10.0379 7.11154 9.90984C7.16638 9.87326 7.17552 9.89155 7.16638 9.93727C7.13896 10.0927 7.17552 10.422 7.6417 10.614C7.99819 10.7604 8.20843 10.614 8.34554 10.486C8.40952 10.4311 8.41866 10.4403 8.42781 10.5226C8.44609 10.9707 8.82086 11.3274 9.26876 11.3274C9.73494 11.3274 10.1097 10.9524 10.1097 10.486C10.1006 10.0287 9.7258 9.65377 9.25962 9.64462Z" fill="white"/>
<path d="M10 0.572449C4.47898 0.572449 0 3.5081 0 7.1205C0 7.21195 0 7.46802 0 7.5046C0 11.3273 3.91225 14.4276 10 14.4276C16.0878 14.4276 20 11.3273 20 7.5046V7.1205C20 3.5081 15.521 0.572449 10 0.572449ZM19.543 6.38887C17.3675 6.87357 15.7495 7.57776 15.3382 7.75152C14.3876 6.9193 12.1938 5.01707 11.5996 4.56895C11.2614 4.31288 11.0329 4.1757 10.8227 4.12083C10.7313 4.0934 10.6033 4.06596 10.4388 4.06596C10.2834 4.06596 10.128 4.0934 9.9543 4.14827C9.57038 4.26716 9.18647 4.5781 8.82084 4.87075V4.87989C8.47349 5.15425 8.117 5.43776 7.85192 5.50177C7.73309 5.52921 7.61426 5.53836 7.49543 5.53836C7.19378 5.53836 6.91956 5.4469 6.81901 5.31887C6.80073 5.30058 6.80987 5.264 6.85558 5.20913L6.86472 5.19998L7.69653 4.30374C8.35466 3.64528 8.96709 3.03254 10.3931 2.99596C10.4205 2.99596 10.4388 2.99596 10.4662 2.99596C11.3528 2.99596 12.2395 3.38921 12.3309 3.43493C13.1627 3.83733 14.0128 4.04767 14.8812 4.04767C15.777 4.04767 16.7002 3.82818 17.6691 3.38006C18.6654 4.23972 19.3419 5.27314 19.543 6.38887ZM10 0.956553C12.9342 0.956553 15.5576 1.79792 17.3218 3.12399C16.4717 3.4898 15.6581 3.68186 14.872 3.68186C14.0676 3.68186 13.2633 3.48981 12.4863 3.1057C12.4497 3.08741 11.4717 2.621 10.4479 2.621C10.4205 2.621 10.3931 2.621 10.3656 2.621C9.16819 2.64843 8.50091 3.06912 8.04388 3.44408C7.60512 3.45322 7.22121 3.56297 6.883 3.65442C6.58135 3.73673 6.32541 3.80989 6.06947 3.80989C5.96892 3.80989 5.77697 3.80075 5.75868 3.80075C5.46618 3.7916 4.00366 3.43493 2.83364 2.99596C4.60695 1.74305 7.15722 0.956553 10 0.956553ZM2.50457 3.25203C3.72029 3.75502 5.2011 4.13912 5.67642 4.16656C5.80439 4.1757 5.9415 4.19399 6.08775 4.19399C6.39854 4.19399 6.70932 4.10254 7.01097 4.02023C7.18464 3.97451 7.38574 3.91963 7.58684 3.87391C7.53199 3.92878 7.47715 3.98365 7.4223 4.03852L6.57221 4.95305C6.50823 5.01707 6.36197 5.19998 6.45338 5.41947C6.48994 5.51092 6.57221 5.59323 6.67276 5.66639C6.87386 5.80357 7.23949 5.89502 7.56856 5.89502C7.69653 5.89502 7.81536 5.88588 7.92505 5.85844C8.28154 5.77613 8.65631 5.48348 9.04936 5.1634C9.36015 4.91647 9.80804 4.59639 10.1554 4.50493C10.2559 4.4775 10.3656 4.45921 10.4662 4.45921C10.4936 4.45921 10.521 4.45921 10.5484 4.46835C10.777 4.49579 10.9963 4.5781 11.3803 4.87075C12.075 5.39203 15.1554 8.0899 15.1828 8.11733C15.1828 8.11733 15.3839 8.2911 15.3656 8.5746C15.3565 8.73007 15.2742 8.86725 15.1188 8.96785C14.9909 9.05016 14.8537 9.09588 14.7166 9.09588C14.5064 9.09588 14.3693 8.99529 14.3601 8.99529C14.351 8.98614 13.2907 8.01674 12.9068 7.68751C12.8428 7.63263 12.7879 7.58691 12.7239 7.58691C12.6874 7.58691 12.66 7.6052 12.6417 7.62349C12.5777 7.69665 12.6508 7.8064 12.7331 7.87041L13.9671 9.11417C13.9671 9.11417 14.1225 9.2605 14.1408 9.45255C14.1499 9.65375 14.0494 9.82751 13.8483 9.96469C13.702 10.0653 13.5558 10.111 13.4095 10.111C13.2176 10.111 13.0896 10.0287 13.0622 10.0013L12.8885 9.82751C12.5686 9.50742 12.2303 9.17819 11.9835 8.97699C11.9196 8.93127 11.8647 8.88554 11.8007 8.88554C11.7733 8.88554 11.7459 8.89469 11.7185 8.92212C11.691 8.94956 11.6728 9.00443 11.7367 9.10503C11.7642 9.14161 11.8007 9.17819 11.8007 9.17819L12.6965 10.1933C12.7057 10.2025 12.8793 10.4128 12.7148 10.6231L12.6782 10.6597C12.6508 10.6872 12.6234 10.7146 12.596 10.742C12.4406 10.8701 12.2395 10.8792 12.1572 10.8792C12.1115 10.8792 12.075 10.8792 12.0384 10.8701C11.947 10.8518 11.8921 10.8335 11.8647 10.7969L11.8556 10.7878C11.8099 10.7329 11.3528 10.2756 10.9781 9.96469C10.9324 9.91896 10.8684 9.87324 10.8044 9.87324C10.777 9.87324 10.7495 9.88238 10.7221 9.90982C10.649 9.99212 10.7587 10.111 10.8044 10.1567L11.5722 11.0073C11.5722 11.0164 11.5631 11.0347 11.5448 11.0621C11.5174 11.0987 11.426 11.1902 11.1426 11.2267C11.106 11.2267 11.0786 11.2359 11.042 11.2359C10.7587 11.2359 10.4479 11.0987 10.2925 11.0164C10.3656 10.8609 10.4022 10.6963 10.4022 10.5317C10.4022 9.90067 9.89031 9.38853 9.2596 9.38853C9.25046 9.38853 9.23218 9.38853 9.22303 9.38853C9.24132 9.09588 9.20475 8.55631 8.63803 8.30939C8.47349 8.23622 8.3181 8.19964 8.16271 8.19964C8.04388 8.19964 7.92505 8.21793 7.81536 8.26366C7.69653 8.03503 7.50457 7.87041 7.25777 7.7881C7.12066 7.74238 6.98355 7.71494 6.84644 7.71494C6.60878 7.71494 6.39854 7.7881 6.20658 7.91614C6.02377 7.68751 5.74954 7.55033 5.45704 7.55033C5.2011 7.55033 4.9543 7.65092 4.77148 7.83383C4.53382 7.65092 3.58318 7.04733 1.05119 6.47118C0.932358 6.44374 0.658135 6.36144 0.484461 6.31571C0.703839 5.15425 1.42596 4.11169 2.50457 3.25203ZM7.20293 9.86409L7.1755 9.83666H7.14808C7.1298 9.83666 7.10238 9.8458 7.07495 9.86409C6.94698 9.95554 6.81901 10.0013 6.70018 10.0013C6.62706 10.0013 6.56307 9.98298 6.48995 9.96469C5.90494 9.73606 5.95064 9.17819 5.97806 9.01358C5.97806 8.977 5.97806 8.94956 5.95064 8.93127L5.90494 8.89469L5.86837 8.93127C5.74954 9.04101 5.60329 9.10503 5.4479 9.10503C5.10969 9.10503 4.83547 8.83067 4.83547 8.49229C4.83547 8.15392 5.10969 7.87956 5.4479 7.87956C5.74954 7.87956 6.01463 8.10819 6.05119 8.40999L6.06947 8.5746L6.16088 8.43742C6.17002 8.41913 6.41682 8.04417 6.87386 8.04417C6.95612 8.04417 7.04753 8.06246 7.13894 8.0899C7.50457 8.19964 7.55942 8.52887 7.56856 8.66605C7.5777 8.74836 7.63254 8.74836 7.64168 8.74836C7.6691 8.74836 7.69653 8.73007 7.71481 8.71178C7.77879 8.63862 7.93419 8.51973 8.16271 8.51973C8.2724 8.51973 8.38208 8.54717 8.50091 8.59289C9.07678 8.83982 8.8117 9.57144 8.8117 9.58058C8.766 9.69947 8.75686 9.75435 8.80256 9.78178L8.82084 9.79093H8.83912C8.86654 9.79093 8.89397 9.78178 8.94881 9.76349C9.03108 9.73606 9.14077 9.69948 9.2596 9.69948C9.68921 9.70862 10.0457 10.0561 10.0457 10.486C10.0457 10.9158 9.68921 11.2725 9.2596 11.2725C8.83912 11.2725 8.49177 10.9432 8.47349 10.5226C8.47349 10.486 8.46435 10.3945 8.39122 10.3945C8.35466 10.3945 8.32724 10.4128 8.29982 10.4402C8.20841 10.5226 8.08958 10.614 7.9159 10.614C7.83364 10.614 7.75137 10.5957 7.65996 10.5591C7.21207 10.3762 7.20293 10.0744 7.22121 9.9464C7.22121 9.91896 7.23035 9.89153 7.20293 9.86409ZM10 13.2661C4.68921 13.2661 0.383912 10.5134 0.383912 7.11135C0.383912 6.97417 0.393053 6.83699 0.411335 6.69981C0.457038 6.70896 0.877514 6.80955 0.959781 6.82784C3.54662 7.404 4.40585 7.99845 4.5521 8.11733C4.5064 8.23622 4.47898 8.36426 4.47898 8.49229C4.47898 9.03187 4.91773 9.4617 5.4479 9.4617C5.51188 9.4617 5.56673 9.45255 5.63071 9.44341C5.71298 9.83665 5.96892 10.1385 6.36197 10.2939C6.4808 10.3396 6.59049 10.3579 6.70932 10.3579C6.78245 10.3579 6.85558 10.3488 6.9287 10.3305C7.00183 10.5134 7.16636 10.742 7.53199 10.8975C7.65996 10.9524 7.78793 10.9798 7.9159 10.9798C8.01645 10.9798 8.117 10.9615 8.20841 10.9249C8.38208 11.3548 8.80256 11.6383 9.26874 11.6383C9.57952 11.6383 9.87203 11.5102 10.0914 11.2908C10.2742 11.3914 10.6673 11.5834 11.0603 11.5834C11.1152 11.5834 11.1609 11.5834 11.2066 11.5743C11.5996 11.5285 11.7824 11.3731 11.8647 11.2542C11.883 11.2359 11.8921 11.2085 11.9013 11.1902C11.9927 11.2176 12.0932 11.2359 12.2121 11.2359C12.4223 11.2359 12.6325 11.1627 12.8428 11.0164C13.0439 10.8701 13.1901 10.6597 13.2084 10.4768V10.4677C13.2815 10.486 13.3455 10.486 13.4186 10.486C13.638 10.486 13.8574 10.422 14.0585 10.2848C14.4607 10.0196 14.5247 9.68118 14.5247 9.4617C14.5978 9.47999 14.6618 9.47999 14.7349 9.47999C14.9452 9.47999 15.1463 9.41597 15.3382 9.29708C15.585 9.14161 15.7313 8.89469 15.7587 8.61118C15.777 8.41913 15.7221 8.22708 15.6216 8.06246C16.2888 7.77896 17.8154 7.22109 19.6069 6.80956C19.6161 6.91015 19.6161 7.01075 19.6161 7.1205C19.6161 10.5134 15.3108 13.2661 10 13.2661Z" fill="#0A0080"/>
</svg>
