<svg width="18" height="12" viewBox="0 0 18 12" fill="none" xmlns="http://www.w3.org/2000/svg">
<path d="M14.6173 9.51626C14.5226 9.51626 14.4249 9.49486 14.3363 9.45204C14.0126 9.29609 13.8752 8.90466 14.034 8.58052L16.7612 2.91711C16.9169 2.59297 17.3078 2.45536 17.6315 2.61437C17.9552 2.77033 18.0927 3.16175 17.9339 3.4859L15.2067 9.1493C15.0907 9.38171 14.8586 9.51626 14.6173 9.51626Z" fill="#00FF5F"/>
<path d="M14.6173 9.51626C14.4677 9.51626 14.318 9.46427 14.1959 9.3603L5.09517 1.63581C4.82032 1.4034 4.78673 0.990575 5.01883 0.718414C5.25092 0.443195 5.6632 0.409557 5.935 0.641964L15.0357 8.36645C15.3105 8.59886 15.3441 9.01169 15.112 9.28385C14.9838 9.43981 14.8005 9.51626 14.6173 9.51626Z" fill="#00FF5F"/>
<path d="M0.651718 11.5131C0.404351 11.5131 0.169199 11.3725 0.0592576 11.1339C-0.0903845 10.8067 0.0531498 10.4184 0.379919 10.2685L17.0727 2.60826C17.3994 2.45841 17.7873 2.60214 17.9369 2.92935C18.0866 3.25655 17.943 3.64492 17.6163 3.79476L0.923518 11.452C0.834954 11.4948 0.743336 11.5131 0.651718 11.5131Z" fill="#00FF5F"/>
<path d="M0.65172 11.5131C0.553995 11.5131 0.453216 11.4917 0.361598 11.4428C0.0409362 11.2807 -0.0903824 10.8893 0.0714754 10.5682L4.93637 0.846853C5.09823 0.525764 5.48913 0.39427 5.80979 0.556343C6.13046 0.718417 6.26177 1.10984 6.09992 1.43093L1.23502 11.1523C1.11897 11.3816 0.889926 11.5131 0.65172 11.5131Z" fill="#00FF5F"/>
</svg>
