<svg width="18" height="13" viewBox="0 0 18 13" fill="none" xmlns="http://www.w3.org/2000/svg">
<path d="M14.6173 10.0163C14.5226 10.0163 14.4249 9.99487 14.3363 9.95206C14.0126 9.7961 13.8752 9.40468 14.034 9.08053L16.7612 3.41713C16.9169 3.09298 17.3078 2.95537 17.6315 3.11439C17.9552 3.27034 18.0927 3.66177 17.9339 3.98591L15.2067 9.64932C15.0907 9.88172 14.8586 10.0163 14.6173 10.0163Z" fill="#1E3C3C"/>
<path d="M14.6173 10.0163C14.4677 10.0163 14.318 9.96427 14.1959 9.8603L5.09517 2.13581C4.82032 1.9034 4.78673 1.49058 5.01883 1.21841C5.25092 0.943195 5.6632 0.909557 5.935 1.14196L15.0357 8.86645C15.3105 9.09886 15.3441 9.51169 15.112 9.78385C14.9838 9.93981 14.8005 10.0163 14.6173 10.0163Z" fill="url(#paint0_linear_16_60)"/>
<path d="M0.651718 12.0131C0.404351 12.0131 0.169199 11.8725 0.0592576 11.6339C-0.0903845 11.3067 0.0531498 10.9184 0.379919 10.7685L17.0727 3.10826C17.3994 2.95842 17.7873 3.10215 17.9369 3.42935C18.0866 3.75656 17.943 4.14492 17.6163 4.29477L0.923518 11.952C0.834954 11.9948 0.743336 12.0131 0.651718 12.0131Z" fill="url(#paint1_linear_16_60)"/>
<path d="M0.65172 12.0131C0.553995 12.0131 0.453216 11.9917 0.361598 11.9428C0.0409362 11.7807 -0.0903824 11.3893 0.0714754 11.0682L4.93637 1.34686C5.09823 1.02577 5.48913 0.894277 5.80979 1.05635C6.13046 1.21842 6.26177 1.60985 6.09992 1.93094L1.23502 11.6523C1.11897 11.8816 0.889926 12.0131 0.65172 12.0131Z" fill="#00FF5F"/>
<defs>
<linearGradient id="paint0_linear_16_60" x1="6.99328" y1="0.0547158" x2="12.0721" y2="9.03484" gradientUnits="userSpaceOnUse">
<stop stop-color="#00FF5F"/>
<stop offset="0.3041" stop-color="#00FF5F"/>
<stop offset="0.8187" stop-color="#1E3C3C"/>
<stop offset="1" stop-color="#1E3C3C"/>
</linearGradient>
<linearGradient id="paint1_linear_16_60" x1="7.23897" y1="8.7131" x2="16.3451" y2="2.60891" gradientUnits="userSpaceOnUse">
<stop stop-color="#00FF5F"/>
<stop offset="0.3041" stop-color="#00FF5F"/>
<stop offset="0.8187" stop-color="#1E3C3C"/>
<stop offset="1" stop-color="#1E3C3C"/>
</linearGradient>
</defs>
</svg>
