<svg width="20" height="13" viewBox="0 0 20 13" fill="none" xmlns="http://www.w3.org/2000/svg">
<path fill-rule="evenodd" clip-rule="evenodd" d="M6.06846 0.875C5.08268 0.875 4.24358 1.26508 3.61101 1.93288C3.56652 1.93115 3.52155 1.93004 3.47661 1.93004C2.19014 1.93004 0.983405 2.67638 0.394469 3.83555C0.137179 4.34152 0.0417947 4.88619 0.0119566 5.44024C-0.00601242 5.77258 2.29252e-05 6.10821 0.00601218 6.44128L0.00601321 6.44133L0.00602834 6.44218C0.00899835 6.60748 0.0119566 6.77213 0.0119566 6.9354V11.7083H2.65289C2.65289 11.7083 2.65485 9.3573 2.65289 7.33582C2.65256 6.87139 2.65132 6.42425 2.65021 6.02681V6.02676C2.64807 5.25969 2.64645 4.67769 2.65289 4.51349C2.69976 3.33621 3.01759 2.56626 3.61076 1.93654C5.5768 1.93799 6.8497 3.29559 6.92058 5.45615C6.93671 5.95222 6.9421 8.60654 6.9421 8.60654V11.7079H9.58302V7.51479V7.51259C9.58302 7.39547 9.58302 7.27979 9.58318 7.16573V7.16401C9.58397 6.04543 9.58465 5.07971 9.50571 4.39462C9.26211 2.28394 7.98887 0.875 6.06846 0.875ZM19.994 6.56071C20 6.89338 20.006 7.22867 19.988 7.56064L19.9881 7.56052C19.9582 8.11447 19.8629 8.659 19.6056 9.16493C19.0166 10.3239 17.8097 11.0701 16.5232 11.0701C16.4783 11.0701 16.4333 11.069 16.3889 11.0673C15.7563 11.735 14.9171 12.125 13.9312 12.125C12.0107 12.125 10.7374 10.7163 10.4943 8.60602C10.4153 7.92067 10.416 6.95452 10.4168 5.83542L10.417 5.48642V1.29408L13.0561 1.29166V4.39243C13.0561 5.81794 13.0629 7.04875 13.0791 7.54474C13.15 9.70487 14.4229 11.0623 16.3891 11.0637C16.9822 10.4341 17.3001 9.66429 17.347 8.48719C17.3534 8.32304 17.3518 7.74126 17.3496 6.97443V6.97412L17.3496 6.96077C17.3485 6.56675 17.3473 6.12453 17.347 5.66538C17.345 3.64429 17.347 1.29368 17.347 1.29368H19.988V6.06576C19.988 6.22928 19.991 6.39418 19.994 6.55973L19.994 6.56071Z" fill="#820AD1"/>
</svg>
