<svg width="38" height="15" viewBox="0 0 38 15" fill="none" xmlns="http://www.w3.org/2000/svg">
<mask id="mask0_16_62" style="mask-type:luminance" maskUnits="userSpaceOnUse" x="0" y="0" width="38" height="15">
<path d="M0 0.869385H38V14.1306H0V0.869385Z" fill="white"/>
</mask>
<g mask="url(#mask0_16_62)">
<path d="M7.86767 11.5778H9.63657V5.97493H7.86767V11.5778ZM10.2466 2.16235H9.05711V3.45531H10.2466V2.16235ZM3.56701 2.79225H1.85917V4.41675H3.4451C4.45157 4.41675 5.03102 4.94719 5.03102 5.94178C5.03102 6.93637 4.45157 7.49997 3.4451 7.49997H1.85917V4.4499H0.0900574V11.5778H1.85917V9.12446H3.53648C5.58016 9.12446 6.76961 7.93096 6.76961 5.87548C6.76961 3.95261 5.61048 2.79225 3.56701 2.79225ZM11.436 0.869385H7.86767V4.74828H11.436V0.869385ZM10.8565 4.08522H8.47766V1.49929H10.8565V4.08522ZM21.2266 2.79225H19.6099V4.41675H21.135C22.1414 4.41675 22.7211 4.94719 22.7211 5.94178C22.7211 6.93637 22.1414 7.49997 21.1352 7.49997H19.6101V4.4499H17.841V11.5778H19.6101V9.12446H21.2266C23.27 9.12446 24.4595 7.93096 24.4595 5.87548C24.4595 3.95261 23.27 2.79225 21.2266 2.79225ZM36.08 4.84774L34.5549 9.025L33.03 4.84774H31.2001L33.64 11.5778L32.6944 14.1306H34.5549L37.9099 4.84774H36.08ZM28.1499 4.81458C27.0826 4.81458 26.2591 5.07981 25.344 5.5771L25.8929 6.90322C26.5335 6.50538 27.174 6.30646 27.7534 6.30646C28.6075 6.30646 29.0345 6.7043 29.0345 7.43366V7.56627H27.3264C25.8016 7.56627 24.9781 8.32879 24.9781 9.5886C24.9781 10.8153 25.771 11.6772 27.1129 11.6772C27.9669 11.6772 28.5769 11.3457 29.065 10.7821V11.5115H30.8036V7.13529C30.7425 5.70971 29.7969 4.81458 28.1499 4.81458ZM29.1869 9.32338C29.0039 9.88698 28.4856 10.3511 27.7534 10.3511C27.1434 10.3511 26.7775 10.0196 26.7775 9.48914C26.7775 8.9587 27.1129 8.72663 27.784 8.72663H29.1869V9.32338ZM14.1505 10.1191C13.2965 10.1191 12.6865 9.38969 12.6865 8.29564C12.6865 7.23475 13.2965 6.50538 14.1505 6.50538C14.7605 6.50538 15.2181 6.7706 15.5535 7.23475L16.7431 6.30646C16.194 5.41133 15.2486 4.88089 14.0589 4.88089C12.1984 4.84773 10.9176 6.24016 10.9176 8.29564C10.9176 10.3511 12.1986 11.7104 14.0591 11.7104C15.34 11.7104 16.2856 11.1468 16.804 10.2185L15.584 9.32338C15.2791 9.85383 14.791 10.1191 14.1505 10.1191Z" fill="#11C76F"/>
</g>
</svg>
