<svg width="15" height="15" viewBox="0 0 15 15" fill="none" xmlns="http://www.w3.org/2000/svg">
<path d="M10.7873 6.91604C10.7531 6.38517 10.6161 5.85429 10.3421 5.3942L8.01342 1.18261C7.8422 0.864081 7.70521 0.510166 7.63672 0.15625L7.53399 0.333208C6.95181 1.35956 6.95181 2.66905 7.53399 3.69541L9.41749 7.0576C9.99966 8.08396 9.99966 9.39345 9.41749 10.4198L9.31475 10.5968C9.24626 10.2428 9.10928 9.88893 8.93805 9.57041L7.22578 6.49134L6.12992 4.50941C5.9587 4.19089 5.82171 3.83697 5.75322 3.48306L5.65049 3.66002C5.06832 4.68637 5.06832 5.96047 5.65049 7.02221L7.53399 10.3844C8.11616 11.4108 8.11616 12.7203 7.53399 13.7466L7.43125 13.9236C7.36276 13.5697 7.22578 13.2157 7.05455 12.8972L4.69162 8.68562C4.38341 8.11935 4.24643 7.4823 4.24643 6.84526C1.74651 7.5177 -7.62939e-06 8.96875 -7.62939e-06 10.6322C-7.62939e-06 12.968 3.35604 14.8437 7.49974 14.8437C11.6434 14.8437 14.9995 12.968 14.9995 10.6322C15.0337 9.03953 13.3215 7.58848 10.7873 6.91604Z" fill="#EA1D25"/>
</svg>
